<?xml version="1.0" encoding="iso-8859-1"?>
<!-- Generator: Adobe Illustrator 19.0.0, SVG Export Plug-In . SVG Version: 6.00 Build 0)  -->
<svg version="1.1" id="Layer_1" xmlns="http://www.w3.org/2000/svg" xmlns:xlink="http://www.w3.org/1999/xlink" x="0px" y="0px"
	 viewBox="0 0 503.467 503.467" style="enable-background:new 0 0 503.467 503.467;" xml:space="preserve">
<g transform="translate(1 1)">
	<path style="fill:#AAB1BA;" d="M344.6,498.2H156.867v-17.067V421.4c0-0.853,0-2.56,0-3.413c0-0.853,0-1.707,0-2.56v-0.853
		c0-1.707,0.853-2.56,0.853-4.267s0.853-2.56,1.707-4.267c0.853-1.707,1.707-2.56,2.56-4.267c2.56-4.267,5.973-7.68,11.093-11.093
		l0,0c10.24-6.827,26.453-11.093,51.2-11.093l25.6,85.333l25.6-85.333c24.747,0,40.96,4.267,51.2,11.093l0,0
		c5.12,3.413,8.533,7.68,11.947,11.093c0.853,1.707,1.707,2.56,2.56,4.267c0.853,1.707,0.853,2.56,1.707,4.267
		c0.853,1.707,0.853,2.56,0.853,4.267v0.853c0,0.853,0,1.707,0,2.56c0,0.853,0,2.56,0,3.413v59.733V498.2H344.6z"/>
	<path style="fill:#FFD0A1;" d="M293.4,37.4V63c0,23.893-18.773,42.667-42.667,42.667S208.067,86.893,208.067,63V37.4
		c0-18.773,15.36-34.133,34.133-34.133h17.067C278.04,3.267,293.4,18.627,293.4,37.4z M139.8,276.333v25.6
		c0,23.893-18.773,42.667-42.667,42.667s-42.667-18.773-42.667-42.667v-25.6c0-18.773,15.36-34.133,34.133-34.133h17.067
		C124.44,242.2,139.8,257.56,139.8,276.333z M370.2,156.867v25.6c0,23.893-18.773,42.667-42.667,42.667
		c-23.893,0-42.667-18.773-42.667-42.667v-25.6c0-18.773,15.36-34.133,34.133-34.133h17.067
		C354.84,122.733,370.2,138.093,370.2,156.867z M447,276.333v25.6c0,23.893-18.773,42.667-42.667,42.667
		c-23.893,0-42.667-18.773-42.667-42.667v-25.6c0-18.773,15.36-34.133,34.133-34.133h17.067C431.64,242.2,447,257.56,447,276.333z
		 M216.6,156.867v25.6c0,23.893-18.773,42.667-42.667,42.667c-23.893,0-42.667-18.773-42.667-42.667v-25.6
		c0-18.773,15.36-34.133,34.133-34.133h17.067C201.24,122.733,216.6,138.093,216.6,156.867z M293.4,276.333v25.6
		c0,23.893-18.773,42.667-42.667,42.667s-42.667-18.773-42.667-42.667v-25.6c0-18.773,15.36-34.133,34.133-34.133h17.067
		C278.04,242.2,293.4,257.56,293.4,276.333z"/>
	<g>
		<path style="fill:#AAB1BA;" d="M97.133,464.067l25.6-85.333c24.747,0,40.96,4.267,51.2,11.093
			c-5.12,3.413-9.387,7.68-11.093,11.093c-0.853,1.707-1.707,2.56-2.56,4.267c-0.853,1.707-0.853,2.56-1.707,4.267
			c-0.853,1.707-0.853,2.56-0.853,4.267v0.853c0,0.853,0,1.707,0,2.56c0,0.853,0,2.56,0,3.413v59.733H4.12v-59.733
			c0-16.213,8.533-42.667,68.267-42.667L97.133,464.067z"/>
		<path style="fill:#AAB1BA;" d="M404.333,464.067l25.6-85.333c59.733,0,68.267,26.453,68.267,42.667v59.733H344.6V421.4
			c0-0.853,0-2.56,0-3.413c0-0.853,0-1.707,0-2.56v-0.853c0-1.707-0.853-2.56-0.853-4.267s-0.853-2.56-1.707-4.267
			c-0.853-1.707-0.853-2.56-2.56-4.267c-2.56-4.267-5.973-7.68-11.947-11.093c10.24-6.827,26.453-11.093,51.2-11.093
			L404.333,464.067z"/>
	</g>
</g>
<path style="fill:#51565F;" d="M345.6,503.467c-2.56,0-4.267-1.707-4.267-4.267v-76.8c0-9.387-3.413-17.067-9.387-23.04
	c-9.387-9.387-27.307-14.507-52.053-15.36l-24.747,81.92c-0.853,3.413-6.827,3.413-8.533,0L221.867,384
	c-24.747,0-41.813,5.12-52.053,15.36c-5.973,5.973-9.387,13.653-9.387,23.04v76.8c0,2.56-1.707,4.267-4.267,4.267
	c-2.56,0-4.267-1.707-4.267-4.267v-76.8c0-11.947,4.267-21.333,11.947-29.013c11.947-11.947,32.427-17.92,61.44-17.92
	c1.707,0,3.413,0.853,4.267,3.413l21.333,71.68l21.333-71.68c0.853-1.707,2.56-3.413,4.267-3.413c28.16,0,48.64,5.973,60.587,17.92
	c7.68,7.68,11.947,17.067,11.947,29.013v76.8C349.867,501.76,348.16,503.467,345.6,503.467z M499.2,486.4
	c-2.56,0-4.267-1.707-4.267-4.267V422.4c0-9.387-3.413-17.067-9.387-23.04c-9.387-9.387-27.307-14.507-52.053-15.36l-24.747,81.92
	c-0.853,3.413-6.827,3.413-8.533,0L375.467,384c-4.267,0-8.533,0-12.8,0.853c-2.56,0-4.267-1.707-4.267-4.267
	c0-2.56,1.707-4.267,4.267-4.267c5.12-0.853,11.093-0.853,17.067-0.853c1.707,0,3.413,0.853,4.267,3.413l21.333,71.68l21.333-71.68
	c0.853-1.707,2.56-3.413,4.267-3.413c28.16,0,48.64,5.973,60.587,17.92c7.68,7.68,11.947,17.067,11.947,29.013v59.733
	C503.467,484.693,501.76,486.4,499.2,486.4z M4.267,486.4c-2.56,0-4.267-1.707-4.267-4.267V422.4
	c0-11.947,4.267-21.333,11.947-29.013c11.947-11.947,32.427-17.92,61.44-17.92c1.707,0,3.413,0.853,4.267,3.413l21.333,71.68
	l21.333-71.68c0.853-1.707,2.56-3.413,4.267-3.413c5.973,0,11.947,0,17.067,0.853c2.56,0,4.267,2.56,3.413,4.267
	c0,2.56-2.56,4.267-4.267,3.413c-4.267,0-8.533-0.853-13.653-0.853l-24.747,81.92c-0.853,3.413-6.827,3.413-8.533,0l-24.747-81.92
	c-24.747,0-41.813,5.12-52.053,15.36c-5.973,5.973-9.387,13.653-9.387,23.04v59.733C8.533,484.693,6.827,486.4,4.267,486.4z
	 M405.333,349.867c-25.6,0-46.933-21.333-46.933-46.933v-25.6c0-21.333,17.067-38.4,38.4-38.4h17.067
	c21.333,0,38.4,17.067,38.4,38.4v25.6C452.267,328.533,430.933,349.867,405.333,349.867z M396.8,247.467
	c-16.213,0-29.867,13.653-29.867,29.867v25.6c0,21.333,17.067,38.4,38.4,38.4c21.333,0,38.4-17.067,38.4-38.4v-25.6
	c0-16.213-13.653-29.867-29.867-29.867H396.8z M251.733,349.867c-25.6,0-46.933-21.333-46.933-46.933v-25.6
	c0-21.333,17.067-38.4,38.4-38.4h17.067c21.333,0,38.4,17.067,38.4,38.4v25.6C298.667,328.533,277.333,349.867,251.733,349.867z
	 M243.2,247.467c-16.213,0-29.867,13.653-29.867,29.867v25.6c0,21.333,17.067,38.4,38.4,38.4s38.4-17.067,38.4-38.4v-25.6
	c0-16.213-13.653-29.867-29.867-29.867H243.2z M98.133,349.867c-25.6,0-46.933-21.333-46.933-46.933v-25.6
	c0-21.333,17.067-38.4,38.4-38.4h17.067c21.333,0,38.4,17.067,38.4,38.4v25.6C145.067,328.533,123.733,349.867,98.133,349.867z
	 M89.6,247.467c-16.213,0-29.867,13.653-29.867,29.867v25.6c0,21.333,17.067,38.4,38.4,38.4s38.4-17.067,38.4-38.4v-25.6
	c0-16.213-13.653-29.867-29.867-29.867H89.6z M328.533,230.4c-25.6,0-46.933-21.333-46.933-46.933v-25.6
	c0-21.333,17.067-38.4,38.4-38.4h17.067c21.333,0,38.4,17.067,38.4,38.4v25.6C375.467,209.067,354.133,230.4,328.533,230.4z
	 M320,128c-16.213,0-29.867,13.653-29.867,29.867v25.6c0,21.333,17.067,38.4,38.4,38.4s38.4-17.067,38.4-38.4v-25.6
	c0-16.213-13.653-29.867-29.867-29.867H320z M174.933,230.4c-25.6,0-46.933-21.333-46.933-46.933v-25.6
	c0-21.333,17.067-38.4,38.4-38.4h17.067c21.333,0,38.4,17.067,38.4,38.4v25.6C221.867,209.067,200.533,230.4,174.933,230.4z
	 M166.4,128c-16.213,0-29.867,13.653-29.867,29.867v25.6c0,21.333,17.067,38.4,38.4,38.4s38.4-17.067,38.4-38.4v-25.6
	c0-16.213-13.653-29.867-29.867-29.867H166.4z M251.733,110.933c-25.6,0-46.933-21.333-46.933-46.933V38.4
	c0-21.333,17.067-38.4,38.4-38.4h17.067c21.333,0,38.4,17.067,38.4,38.4V64C298.667,89.6,277.333,110.933,251.733,110.933z
	 M243.2,8.533c-16.213,0-29.867,13.653-29.867,29.867V64c0,21.333,17.067,38.4,38.4,38.4s38.4-17.067,38.4-38.4V38.4
	c0-16.213-13.653-29.867-29.867-29.867H243.2z"/>
<g>
</g>
<g>
</g>
<g>
</g>
<g>
</g>
<g>
</g>
<g>
</g>
<g>
</g>
<g>
</g>
<g>
</g>
<g>
</g>
<g>
</g>
<g>
</g>
<g>
</g>
<g>
</g>
<g>
</g>
</svg>
