<?xml version="1.0" encoding="iso-8859-1"?>
<!-- Generator: Adobe Illustrator 19.0.0, SVG Export Plug-In . SVG Version: 6.00 Build 0)  -->
<svg version="1.1" id="Layer_1" xmlns="http://www.w3.org/2000/svg" xmlns:xlink="http://www.w3.org/1999/xlink" x="0px" y="0px"
	 viewBox="0 0 503.7 503.7" style="enable-background:new 0 0 503.7 503.7;" xml:space="preserve">
<g transform="translate(1 1)">
	<path style="fill:#FFD0A1;" d="M344.7,327.7V169.8h0.9c13.7,15.4,33.3,38.4,67.4,38.4s34.1-8.5,34.1-8.5v128
		c0,4.3,0.9,10.2,3.4,17.1c5.1,17.9,13.7,41,13.7,59.7v42.7v34.1c0,9.4-7.7,17.1-17.1,17.1s-17.1-7.7-17.1-17.1
		c0,9.4-7.7,17.1-17.1,17.1s-17.1-7.7-17.1-17.1c0,9.4-7.7,17.1-17.1,17.1s-17.1-7.7-17.1-17.1c0,9.4-7.7,17.1-17.1,17.1
		s-17.1-7.7-17.1-17.1v-34.1c-11.9,8.5-25.6,0-25.6,0s-8.5,0-8.5-34.1c0-35,23.9-53.8,39.3-68.3
		C339.5,338.8,344.7,332.8,344.7,327.7z M447.1,3.4v34.1h-42.7c-18.8,0-41.8,9.4-59.7,13.7V3.4H447.1z"/>
	<path style="fill:#AE938D;" d="M327.6,157H169.7h-0.9c15.4-13.7,39.3-33.3,39.3-68.3c0-34.1-8.5-34.1-8.5-34.1h128
		c4.3,0,10.2-0.9,17.1-3.4c17.9-5.1,41-13.7,59.7-13.7h42.7h34.1c9.4,0,17.1,7.7,17.1,17.1s-7.7,17.1-17.1,17.1
		c9.4,0,17.1,7.7,17.1,17.1s-7.7,17.1-17.1,17.1c9.4,0,17.1,7.7,17.1,17.1s-7.7,17.1-17.1,17.1c9.4,0,17.1,7.7,17.1,17.1
		s-7.7,17.1-17.1,17.1h-34.1c8.5,11.9,0,25.6,0,25.6s0,8.5-34.1,8.5c-35,0-53.8-23.9-67.4-38.4C338.7,162.2,332.7,157,327.6,157z
		 M51.1,157H3.3V54.6h34.1v42.7C37.5,116.1,46.9,139.1,51.1,157z"/>
	<path style="fill:#F2EDDA;" d="M54.5,327.7c-8.5-11.9,0-25.6,0-25.6s0-8.5,34.1-8.5c35,0,53.8,23.9,68.3,38.4
		c6.8,6.8,11.9,12.8,17.1,12.8h157.9h0.9c-15.4,13.7-39.3,33.3-39.3,68.3c0,34.1,8.5,34.1,8.5,34.1H174c-4.3,0-10.2,0.9-17.1,3.4
		c-17.9,5.1-41,13.7-59.7,13.7H54.5H20.4c-9.4,0-17.1-7.7-17.1-17.1s7.7-17.1,17.1-17.1c-9.4,0-17.1-7.7-17.1-17.1
		s7.7-17.1,17.1-17.1c-9.4,0-17.1-7.7-17.1-17.1s7.7-17.1,17.1-17.1c-9.4,0-17.1-7.7-17.1-17.1s7.7-17.1,17.1-17.1h34.1V327.7z
		 M498.3,344.8v102.4h-34.1v-42.7c0-18.8-9.4-41.8-13.7-59.7L498.3,344.8L498.3,344.8z"/>
	<path style="fill:#FFD0A1;" d="M156.9,450.6v47.8H54.5v-34.1h42.7C116,464.2,139,454.8,156.9,450.6z M174,54.6
		c11.9-8.5,25.6,0,25.6,0s8.5,0,8.5,34.1c0,35-23.9,53.8-39.3,68.3c-6.8,6.8-11.9,11.9-11.9,17.1V332l0,0
		c-13.7-15.4-33.3-38.4-68.3-38.4c-34.1,0-34.1,8.5-34.1,8.5v-128c0-4.3-0.9-10.2-3.4-17.1c-5.1-17.9-13.7-41-13.7-59.7V54.6V20.5
		c0-9.4,7.7-17.1,17.1-17.1s17.1,7.7,17.1,17.1c0-9.4,7.7-17.1,17.1-17.1s17.1,7.7,17.1,17.1c0-9.4,7.7-17.1,17.1-17.1
		S140,11.1,140,20.5c0-9.4,7.7-17.1,17.1-17.1s17.1,7.7,17.1,17.1v34.1H174z"/>
</g>
<path style="fill:#51565F;" d="M448.1,503.6c-6.8,0-12.8-3.4-17.1-8.5c-4.3,5.1-10.2,8.5-17.1,8.5s-12.8-3.4-17.1-8.5
	c-4.3,5.1-10.2,8.5-17.1,8.5s-12.8-3.4-17.1-8.5c-4.3,5.1-10.2,8.5-17.1,8.5c-11.9,0-21.3-9.4-21.3-21.3V414c0-2.6,1.7-4.3,4.3-4.3
	c2.6,0,4.3,1.7,4.3,4.3v68.3c0,6.8,6,12.8,12.8,12.8s12.8-6,12.8-12.8c0-2.6,1.7-4.3,4.3-4.3s4.3,1.7,4.3,4.3
	c0,6.8,6,12.8,12.8,12.8s12.8-6,12.8-12.8c0-2.6,1.7-4.3,4.3-4.3s4.3,1.7,4.3,4.3c0,6.8,6,12.8,12.8,12.8s12.8-6,12.8-12.8
	c0-2.6,1.7-4.3,4.3-4.3s4.3,1.7,4.3,4.3c0,6.8,6,12.8,12.8,12.8s12.8-6,12.8-12.8v-76.8c0-13.7-5.1-29.9-9.4-44.4
	c-4.3-12.8-7.7-23.9-7.7-32.4v-85.3c0-2.6,1.7-4.3,4.3-4.3c2.6,0,4.3,1.7,4.3,4.3v85.3c0,3.4,0.9,7.7,1.7,12.8h45.2
	c2.6,0,4.3,1.7,4.3,4.3s-1.7,4.3-4.3,4.3h-42.7c0.9,2.6,1.7,6,2.6,8.5c5.1,15.4,10.2,32.4,10.2,46.9v38.4h29.9
	c2.6,0,4.3,1.7,4.3,4.3c0,2.6-1.7,4.3-4.3,4.3h-29.9v29.9C469.4,494.2,460,503.6,448.1,503.6z M157.9,503.6c-2.6,0-4.3-1.7-4.3-4.3
	v-42.7c-2.6,0.9-6,1.7-8.5,2.6c-15.4,5.1-32.4,10.2-46.9,10.2H59.8v29.9c0,2.6-1.7,4.3-4.3,4.3s-4.3-1.7-4.3-4.3v-29.9H21.4
	c-11.9,0-21.3-9.4-21.3-21.3c0-6.8,3.4-12.8,8.5-17.1c-5.1-4.3-8.5-10.2-8.5-17.1c0-6.8,3.4-12.8,8.5-17.1
	c-5.1-4.3-8.5-10.2-8.5-17.1s3.4-12.8,8.5-17.1c-5.1-4.3-8.5-10.2-8.5-17.1c0-11.9,9.4-21.3,21.3-21.3h68.3c2.6,0,4.3,1.7,4.3,4.3
	c0,2.6-1.7,4.3-4.3,4.3H21.4c-6.8,0-12.8,6-12.8,12.8s6,12.8,12.8,12.8c2.6,0,4.3,1.7,4.3,4.3c0,2.6-1.7,4.3-4.3,4.3
	c-6.8,0-12.8,6-12.8,12.8s6,12.8,12.8,12.8c2.6,0,4.3,1.7,4.3,4.3c0,2.6-1.7,4.3-4.3,4.3c-6.8,0-12.8,6-12.8,12.8s6,12.8,12.8,12.8
	c2.6,0,4.3,1.7,4.3,4.3s-1.7,4.3-4.3,4.3c-6.8,0-12.8,6-12.8,12.8s6,12.8,12.8,12.8h76.8c13.7,0,29.9-5.1,44.4-9.4
	c12.8-4.3,23.9-7.7,32.4-7.7h85.3c2.6,0,4.3,1.7,4.3,4.3c0,2.6-1.7,4.3-4.3,4.3H175c-3.4,0-7.7,0.9-12.8,1.7v45.2
	C162.2,501.9,160.5,503.6,157.9,503.6z M303,452.4c-5.1,0-12.8-5.1-12.8-38.4c0-34.1,21.3-53.8,36.7-68.3
	c7.7-6.8,14.5-12.8,14.5-17.1V217.8c0-2.6,1.7-4.3,4.3-4.3s4.3,1.7,4.3,4.3v110.9c0,8.5-7.7,15.4-17.1,23.9
	c-14.5,12.8-34.1,31.6-34.1,61.4c0,24.7,4.3,29,5.1,29.9c1.7,0,3.4,2.6,3.4,4.3C307.3,450.7,305.6,452.4,303,452.4z M285.9,350H175
	c-8.5,0-15.4-7.7-23.9-17.1c-12.8-14.5-31.6-34.1-61.4-34.1c-24.7,0-29,4.3-29.9,5.1c0,1.7-1.7,3.4-4.3,3.4s-4.3-1.7-4.3-4.3
	c0-5.1,5.1-12.8,38.4-12.8c34.1,0,53.8,21.3,68.3,36.7c6.8,7.7,12.8,14.5,17.1,14.5h110.9c2.6,0,4.3,1.7,4.3,4.3
	S288.5,350,285.9,350z M157.9,290.3c-2.6,0-4.3-1.7-4.3-4.3V175.1c0-8.5,7.7-15.4,17.1-23.9c14.5-12.8,34.1-31.6,34.1-61.4
	c0-24.7-4.3-29-5.1-29.9c-1.7,0-3.4-1.7-3.4-4.3s1.7-4.3,4.3-4.3c5.1,0,12.8,5.1,12.8,38.4c0,34.1-21.3,53.8-36.7,68.3
	c-7.7,6.8-14.5,12.8-14.5,17.1V286C162.2,288.6,160.5,290.3,157.9,290.3z M55.5,264.7c-2.6,0-4.3-1.7-4.3-4.3v-85.3
	c0-3.4-0.9-7.7-1.7-12.8H4.3c-2.6,0-4.3-1.7-4.3-4.3s1.7-4.3,4.3-4.3H47c-0.9-2.6-1.7-6-2.6-8.5c-4.3-15.4-10.2-32.4-10.2-46.9V59.9
	H4.3c-2.6,0-4.3-1.7-4.3-4.3s1.7-4.3,4.3-4.3h29.9V21.5c0-11.9,9.4-21.3,21.3-21.3c6.8,0,12.8,3.4,17.1,8.5
	c4.3-5.1,10.2-8.5,17.1-8.5c6.8,0,12.8,3.4,17.1,8.5c4.3-5.1,10.2-8.5,17.1-8.5s12.8,3.4,17.1,8.5c4.3-5.1,10.2-8.5,17.1-8.5
	c11.9,0,21.3,9.4,21.3,21.3v68.3c0,2.6-1.7,4.3-4.3,4.3s-4.3-1.7-4.3-4.3V21.5c0-6.8-6-12.8-12.8-12.8s-12.8,6-12.8,12.8
	c0,2.6-1.7,4.3-4.3,4.3s-4.3-1.7-4.3-4.3c0-6.8-6-12.8-12.8-12.8s-12.8,6-12.8,12.8c0,2.6-1.7,4.3-4.3,4.3s-4.3-1.7-4.3-4.3
	c0-6.8-6-12.8-12.8-12.8s-12.8,6-12.8,12.8c0,2.6-1.7,4.3-4.3,4.3c-2.6,0-4.3-1.7-4.3-4.3c0-6.8-6-12.8-12.8-12.8s-12.8,6-12.8,12.8
	v76.8c0,13.7,5.1,29.9,9.4,44.4c4.3,12.8,7.7,23.9,7.7,32.4v85.3C59.8,263,58.1,264.7,55.5,264.7z M413.9,213.5
	c-34.1,0-53.8-21.3-68.3-36.7c-6.8-7.7-12.8-14.5-17.1-14.5H217.7c-2.6,0-4.3-1.7-4.3-4.3s1.7-4.3,4.3-4.3h110.9
	c8.5,0,15.4,7.7,23.9,17.1c12.8,14.5,31.6,34.1,61.4,34.1c24.7,0,29-4.3,29.9-5.1c0-1.7,2.6-3.4,4.3-3.4c2.6,0,4.3,1.7,4.3,4.3
	C452.3,205.8,447.2,213.5,413.9,213.5z M482.2,179.4h-68.3c-2.6,0-4.3-1.7-4.3-4.3s1.7-4.3,4.3-4.3h68.3c6.8,0,12.8-6,12.8-12.8
	s-6-12.8-12.8-12.8c-2.6,0-4.3-1.7-4.3-4.3s1.7-4.3,4.3-4.3c6.8,0,12.8-6,12.8-12.8s-6-12.8-12.8-12.8c-2.6,0-4.3-1.7-4.3-4.3
	s1.7-4.3,4.3-4.3c6.8,0,12.8-6,12.8-12.8s-6-12.8-12.8-12.8c-2.6,0-4.3-1.7-4.3-4.3c0-2.6,1.7-4.3,4.3-4.3c6.8,0,12.8-6,12.8-12.8
	s-6-12.8-12.8-12.8h-76.8c-13.7,0-29.9,5.1-44.4,9.4c-12.8,4.3-23.9,7.7-32.4,7.7h-85.3c-2.6,0-4.3-1.7-4.3-4.3s1.7-4.3,4.3-4.3
	h85.3c3.4,0,7.7-0.9,12.8-1.7v-45c0-2.6,1.7-4.3,4.3-4.3s4.3,1.7,4.3,4.3v42.7c2.6-0.9,6-1.7,8.5-2.6c15.4-4.3,32.4-10.2,46.9-10.2
	h38.4V4.4c0-2.6,1.7-4.3,4.3-4.3c2.6,0,4.3,1.7,4.3,4.3v29.9h29.9c11.9,0,21.3,9.4,21.3,21.3c0,6.8-3.4,12.8-8.5,17.1
	c5.1,4.3,8.5,10.2,8.5,17.1c0,6.8-3.4,12.8-8.5,17.1c5.1,4.3,8.5,10.2,8.5,17.1s-3.4,12.8-8.5,17.1c5.1,4.3,8.5,10.2,8.5,17.1
	C503.5,170,494.1,179.4,482.2,179.4z"/>
<g>
</g>
<g>
</g>
<g>
</g>
<g>
</g>
<g>
</g>
<g>
</g>
<g>
</g>
<g>
</g>
<g>
</g>
<g>
</g>
<g>
</g>
<g>
</g>
<g>
</g>
<g>
</g>
<g>
</g>
</svg>
